# xmcd
#
# Track frame offsets:
#	150
#	38840
#	84338
#	106952
#	135042
#	166143
#	184136
#	206927
#
# Disc length: 3249 seconds
#
# Revision: 1
# Processed by: cddbd v1.5.1PL2 Copyright (c) Steve Scherf et al.
# Submitted via: EasyCDDAExtractor 9.0.0.1
#
DISCID=5e0caf08
DTITLE=Blue Oyster Cult - Cow Palace San Fransisco 25-11-83 Disc 2
DYEAR=1983
DGENRE=Hard Rock
TTITLE0=(Don't Fear) The Reaper
TTITLE1=Godzilla
TTITLE2=Bass Solo
TTITLE3=Feel The Thunder
TTITLE4=Born To Be Wild
TTITLE5=Let Go
TTITLE6=Burning For You
TTITLE7=Roadhouse Blues
EXTD=
EXTT0=
EXTT1=
EXTT2=
EXTT3=
EXTT4=
EXTT5=
EXTT6=
EXTT7=
PLAYORDER=
